<svg xmlns="http://www.w3.org/2000/svg" version="1.1" xmlns:xlink="http://www.w3.org/1999/xlink" xmlns:svgjs="http://svgjs.dev/svgjs" width="1500" height="2228" viewBox="0 0 1500 2228"><g transform="matrix(1,0,0,1,1.6771007127811117,-2.4802264150941937)"><svg viewBox="0 0 107 159" data-background-color="#ffffff" preserveAspectRatio="xMidYMid meet" height="2228" width="1500" xmlns="http://www.w3.org/2000/svg" xmlns:xlink="http://www.w3.org/1999/xlink"><g id="tight-bounds" transform="matrix(1,0,0,1,-0.11963318417838309,0.1769999999999925)"><svg viewBox="0 0 107.2392663683568 158.6455892686348" height="158.6455892686348" width="107.2392663683568"><g><svg viewBox="0 0 107.2392663683568 158.6455892686348" height="158.6455892686348" width="107.2392663683568"><g><svg viewBox="0 0 107.2392663683568 158.6455892686348" height="158.6455892686348" width="107.2392663683568"><g><path d="M0 158.646v-158.646h107.239v158.646z" fill="#202046" stroke="transparent" stroke-width="0" rx="0%" data-fill-palette-color="tertiary"></path><path d="M3.283 155.362v-152.079h100.673v152.079z" fill="#ffffff" stroke="transparent" stroke-width="0" rx="0%" data-fill-palette-color="quaternary"></path><path d="M9.85 148.796v-138.946h87.539v138.946z" fill="#202046" stroke="transparent" stroke-width="0" data-fill-palette-color="tertiary"></path></g><g transform="matrix(1,0,0,1,19.69974,19.69974)" id="textblocktransform"><svg viewBox="0 0 67.8397863683568 119.24610926863483" height="119.24610926863483" width="67.8397863683568" id="textblock"><g><svg viewBox="0 0 67.8397863683568 100.57561757280003" height="100.57561757280003" width="67.8397863683568"><g transform="matrix(1,0,0,1,0,0)"><svg width="67.8397863683568" viewBox="2.1 -35.5 24.349999999999998 36.1" height="100.57561757280003" data-palette-color="#ffffff"><path d="M14.45 0.6L14.45 0.6Q10.2 0.6 7.2-1.03 4.2-2.65 2.1-5.5L2.1-5.5 5.2-8.1Q7.05-5.65 9.3-4.38 11.55-3.1 14.6-3.1L14.6-3.1Q18.35-3.1 20.33-4.9 22.3-6.7 22.3-9.7L22.3-9.7Q22.3-12.2 20.8-13.55 19.3-14.9 15.85-15.7L15.85-15.7 13-16.35Q8.2-17.45 5.68-19.68 3.15-21.9 3.15-25.95L3.15-25.95Q3.15-28.25 4-30.05 4.85-31.85 6.38-33.05 7.9-34.25 10.03-34.88 12.15-35.5 14.7-35.5L14.7-35.5Q18.65-35.5 21.48-34.05 24.3-32.6 26.25-29.8L26.25-29.8 23.1-27.5Q21.65-29.5 19.6-30.65 17.55-31.8 14.5-31.8L14.5-31.8Q11.15-31.8 9.22-30.38 7.3-28.95 7.3-26.1L7.3-26.1Q7.3-23.6 8.93-22.33 10.55-21.05 13.85-20.3L13.85-20.3 16.7-19.65Q21.85-18.5 24.15-16.15 26.45-13.8 26.45-9.9L26.45-9.9Q26.45-7.5 25.63-5.55 24.8-3.6 23.25-2.25 21.7-0.9 19.48-0.15 17.25 0.6 14.45 0.6Z" opacity="1" transform="matrix(1,0,0,1,0,0)" fill="#ffffff" class="wordmark-text-0" data-fill-palette-color="quaternary" id="text-0"></path></svg></g></svg></g><g transform="matrix(1,0,0,1,0,107.14219757280003)"><svg viewBox="0 0 67.8397863683568 12.103911695834803" height="12.103911695834803" width="67.8397863683568"><g transform="matrix(1,0,0,1,0,0)"><svg width="67.8397863683568" viewBox="3 -35.05 199.23 35.55" height="12.103911695834803" data-palette-color="#ffffff"><path d="M13.2 0.5L13.2 0.5Q10.1 0.5 7.95-0.08 5.8-0.65 3.5-1.8L3.5-1.8 3-10 3.8-10 6.25-4.7Q8.05-3.2 9.75-2.53 11.45-1.85 13.2-1.85L13.2-1.85Q16.15-1.85 17.82-3.4 19.5-4.95 19.5-7.6L19.5-7.6Q19.5-9.8 18.53-11.05 17.55-12.3 15.73-13.28 13.9-14.25 11.4-15.5L11.4-15.5Q9.05-16.7 7.4-17.85 5.75-19 4.9-20.53 4.05-22.05 4.05-24.35L4.05-24.35Q4.05-26.05 4.88-27.68 5.7-29.3 7.13-30.63 8.55-31.95 10.33-32.73 12.1-33.5 14-33.5L14-33.5Q16.3-33.5 18.25-32.95 20.2-32.4 22.25-31.4L22.25-31.4 22.75-23.4 21.95-23.4 19.65-28.65Q17.9-29.95 16.6-30.53 15.3-31.1 13.6-31.1L13.6-31.1Q11.4-31.1 9.98-29.6 8.55-28.1 8.55-25.9L8.55-25.9Q8.55-23.35 10.1-21.93 11.65-20.5 14.95-18.9L14.95-18.9Q18-17.4 19.95-16.13 21.9-14.85 22.85-13.2 23.8-11.55 23.8-9L23.8-9Q23.8-6.65 22.8-4.88 21.8-3.1 20.23-1.9 18.65-0.7 16.78-0.1 14.9 0.5 13.2 0.5ZM34.35 0.5L34.35 0.5Q32 0.5 30.45-0.88 28.9-2.25 28.9-4.7L28.9-4.7Q28.9-7.15 30.72-8.95 32.55-10.75 36.85-11.75L36.85-11.75 41.6-12.85 41.6-16.5Q41.6-18.2 40.22-19.43 38.85-20.65 37.1-20.65L37.1-20.65Q35.2-20.65 34.45-19.63 33.7-18.6 33.7-16.9L33.7-16.9 33.7-15.5 33.45-15.25 30.85-15.25Q30.1-15.25 29.82-15.5 29.55-15.75 29.55-16.65L29.55-16.65Q29.55-17.75 30.2-18.9 30.85-20.05 32.2-20.9L32.2-20.9Q33.6-21.8 35.12-22.4 36.65-23 38.4-23L38.4-23Q40.15-23 41.82-22.5 43.5-22 44.55-20.83 45.6-19.65 45.6-17.55L45.6-17.55 45.6-3.35Q45.95-3 46.6-2.75 47.25-2.5 48.4-2.5L48.4-2.5 50.3-2.5 50.45-2.4 50.45-2.25Q49.85-1.15 48.67-0.33 47.5 0.5 45.8 0.5L45.8 0.5Q44.25 0.5 43.27-0.33 42.3-1.15 41.9-2.5L41.9-2.5 41.6-2.5Q40.3-1.2 38.37-0.35 36.45 0.5 34.35 0.5ZM32.8-5.7L32.8-5.7Q32.8-2.6 36.55-2.6L36.55-2.6Q37.75-2.6 38.92-2.85 40.1-3.1 41.6-3.75L41.6-3.75 41.6-11.15Q37.6-10.4 35.75-9.58 33.9-8.75 33.35-7.8 32.8-6.85 32.8-5.7ZM58.7-29.05L58.7-29.05Q57.4-29.05 56.55-29.93 55.7-30.8 55.7-32.05L55.7-32.05Q55.7-33.35 56.55-34.2 57.4-35.05 58.7-35.05L58.7-35.05Q60-35.05 60.85-34.2 61.7-33.35 61.7-32.05L61.7-32.05Q61.7-30.8 60.85-29.93 60-29.05 58.7-29.05ZM64 0L53.7 0 53.7-0.8 56.85-2.4 56.85-17.3 53.85-19.9 53.85-20.25 60.55-23 60.85-23 60.85-2.4 64-0.8 64 0ZM94.89 0L82.39 0 82.39-0.8 86.39-2.8 86.39-30.2 82.39-32.2 82.39-33 94.89-33 94.89-32.2 90.89-30.2 90.89-2.8 94.89-0.8 94.89 0ZM107.14 0L90.94-16.9 104.79-30.5 101.24-32.2 101.24-33 111.74-33 111.74-32.2 108.64-31 95.49-18.1 111.29-2.1 114.34-0.8 114.34 0 107.14 0ZM122.79-29.05L122.79-29.05Q121.49-29.05 120.64-29.93 119.79-30.8 119.79-32.05L119.79-32.05Q119.79-33.35 120.64-34.2 121.49-35.05 122.79-35.05L122.79-35.05Q124.09-35.05 124.94-34.2 125.79-33.35 125.79-32.05L125.79-32.05Q125.79-30.8 124.94-29.93 124.09-29.05 122.79-29.05ZM128.09 0L117.79 0 117.79-0.8 120.94-2.4 120.94-17.3 117.94-19.9 117.94-20.25 124.64-23 124.94-23 124.94-2.4 128.09-0.8 128.09 0ZM144.04 0L133.34 0 133.34-0.8 136.49-2.4 136.49-17.3 133.49-19.9 133.49-20.25 139.69-23 139.99-23 140.44-18.75 140.64-18.75Q141.79-20.6 142.76-21.53 143.74-22.45 144.59-22.73 145.44-23 146.29-23L146.29-23Q146.69-23 147.21-22.85 147.74-22.7 148.09-22.55L148.09-22.55Q148.64-22.3 149.11-21.95 149.59-21.6 149.59-21.15L149.59-21.15Q149.59-20.7 149.39-20.25L149.39-20.25 148.39-17.8 148.04-17.8 146.14-18.55Q145.59-18.8 145.06-18.85 144.54-18.9 144.04-18.9L144.04-18.9Q141.94-18.9 140.49-16.75L140.49-16.75 140.49-2.4 144.04-0.8 144.04 0ZM158.38 0.5L158.38 0.5Q156.03 0.5 154.48-0.88 152.93-2.25 152.93-4.7L152.93-4.7Q152.93-7.15 154.76-8.95 156.58-10.75 160.88-11.75L160.88-11.75 165.63-12.85 165.63-16.5Q165.63-18.2 164.26-19.43 162.88-20.65 161.13-20.65L161.13-20.65Q159.23-20.65 158.48-19.63 157.73-18.6 157.73-16.9L157.73-16.9 157.73-15.5 157.48-15.25 154.88-15.25Q154.13-15.25 153.86-15.5 153.58-15.75 153.58-16.65L153.58-16.65Q153.58-17.75 154.23-18.9 154.88-20.05 156.23-20.9L156.23-20.9Q157.63-21.8 159.16-22.4 160.68-23 162.43-23L162.43-23Q164.18-23 165.86-22.5 167.53-22 168.58-20.83 169.63-19.65 169.63-17.55L169.63-17.55 169.63-3.35Q169.98-3 170.63-2.75 171.28-2.5 172.43-2.5L172.43-2.5 174.33-2.5 174.48-2.4 174.48-2.25Q173.88-1.15 172.71-0.33 171.53 0.5 169.83 0.5L169.83 0.5Q168.28 0.5 167.31-0.33 166.33-1.15 165.93-2.5L165.93-2.5 165.63-2.5Q164.33-1.2 162.41-0.35 160.48 0.5 158.38 0.5ZM156.83-5.7L156.83-5.7Q156.83-2.6 160.58-2.6L160.58-2.6Q161.78-2.6 162.96-2.85 164.13-3.1 165.63-3.75L165.63-3.75 165.63-11.15Q161.63-10.4 159.78-9.58 157.93-8.75 157.38-7.8 156.83-6.85 156.83-5.7ZM188.13 0L177.43 0 177.43-0.8 180.58-2.4 180.58-17.3 177.58-19.9 177.58-20.25 183.78-23 184.08-23 184.53-19.3 184.78-19.3Q186.68-21.2 188.46-22.1 190.23-23 192.38-23L192.38-23Q195.33-23 197.21-21.53 199.08-20.05 199.08-17.15L199.08-17.15 199.08-2.4 202.23-0.8 202.23 0 191.53 0 191.53-0.8 195.08-2.4 195.08-14.8Q195.08-17 193.71-18.15 192.33-19.3 190.13-19.3L190.13-19.3Q188.78-19.3 187.16-18.85 185.53-18.4 184.58-17.55L184.58-17.55 184.58-2.4 188.13-0.8 188.13 0Z" opacity="1" transform="matrix(1,0,0,1,0,0)" fill="#ffffff" class="slogan-text-1" data-fill-palette-color="quaternary" id="text-1"></path></svg></g></svg></g></svg></g></svg></g><g></g></svg></g><defs></defs></svg><rect width="107.2392663683568" height="158.6455892686348" fill="none" stroke="none" visibility="hidden"></rect></g></svg></g></svg>